<svg width="102" height="104" viewBox="0 0 102 104" fill="none" xmlns="http://www.w3.org/2000/svg">
<g clip-path="url(#clip0_1_38)">
<path d="M25.8464 75.638C31.0078 75.638 60.868 75.638 66.0234 75.638C66.2224 71.0562 65.8942 63.4543 63.0772 59.8361L62.9754 59.7062L56.8196 56.6154C56.9533 56.1646 57.0191 55.7516 57.0455 55.448C57.0759 55.0836 57.0257 54.7413 56.8955 54.4313C55.88 52.0011 53.7311 50.7226 52.549 50.1776C52.9092 49.4519 53.1415 48.6727 53.2536 47.8767C53.9227 47.6882 54.461 47.1579 54.6374 46.4505L55.356 43.5314C55.4832 43.0165 55.4033 42.4824 55.1296 42.0283C55.0119 41.8324 54.8596 41.6676 54.6888 41.5267C56.7146 36.925 53.3216 32.5862 53.1367 32.3578C49.4621 28.3848 44.82 29.1277 44.5746 29.1717C37.8754 30.5745 35.2902 35.7087 36.7497 41.7301C36.3173 42.2091 36.1358 42.8764 36.2961 43.5307L37.0181 46.453C37.1932 47.1552 37.7271 47.6836 38.3915 47.8743C38.5965 49.3322 39.2136 50.6508 40.1199 51.7135V54.0275C30.5065 58.9506 36.5978 55.8098 28.8938 59.7072C28.8785 59.78 25.2788 63.6057 25.8139 74.9452L25.8464 75.638ZM64.6274 74.1834H58.015V71.4057L62.3884 61.394C64.5793 65.0304 64.6607 71.9736 64.6274 74.1834ZM55.6028 55.3244C55.3476 58.2557 53.7401 57.3697 52.7478 59.628C51.9673 58.7698 51.7326 57.7407 51.9423 56.6391C52.3213 54.6163 51.0867 54.0155 51.3918 51.8902L51.438 51.8415V51.8347C51.4643 51.8054 51.7077 51.5155 51.7782 51.4239C54.3943 52.5643 55.6538 54.6853 55.6028 55.3244ZM41.5683 53.0204C42.7828 53.8628 44.2488 54.3606 45.8257 54.3606C47.3107 54.3606 48.7211 53.9285 49.9304 53.1328C50.098 54.8037 50.7511 55.1382 50.5194 56.3677C50.4759 56.596 50.4524 56.8209 50.4384 57.0421L45.9353 62.1174L40.1787 55.6275L41.5683 54.9018V53.0204H41.5683ZM39.7578 46.8091V43.9952C39.7578 42.959 39.7578 38.848 39.7578 39.051C40.4587 37.7548 41.4141 36.8148 42.6015 36.2513C45.7816 38.0506 49.4421 40.7359 51.897 43.4385C51.8947 46.8801 51.9067 46.8895 51.8838 47.1723L51.8823 47.1902C51.6907 50.3155 49.121 52.9061 45.8257 52.9061C42.622 52.9061 39.9622 50.3908 39.7699 47.1593C39.76 47.0435 39.7578 46.9274 39.7578 46.8091ZM38.8611 56.3294L45.9353 64.3042L50.6846 58.9514C50.7932 59.264 50.9454 59.5592 51.1196 59.8444L45.9353 66.3276L38.2045 56.659L38.8611 56.3294ZM53.3454 45.6387V43.3919C53.409 43.3189 53.949 42.6998 53.8853 42.7728C53.9152 43.9104 54.038 42.5677 53.3454 45.6387ZM44.8426 30.6011C45.13 30.6189 48.9903 30.0139 52.0413 33.3077C52.1614 33.4585 54.645 36.6584 53.6472 40.1589C53.3057 38.6012 52.7104 36.6051 51.7697 35.6525L50.7414 36.6767C51.6703 37.6175 52.2804 40.4824 52.5128 41.9676C48.2522 37.5093 42.7561 34.6875 42.6807 34.6398C42.4051 34.8112 40.0793 35.2534 38.3901 38.5364L38.3095 38.6934V41.1046C38.237 41.1054 38.024 41.1076 38.0966 41.1069C37.0233 35.9253 39.0786 31.8092 44.8426 30.6011ZM37.9439 42.6032L38.3095 44.084V45.6405L37.702 43.1817C37.6129 42.8152 37.8844 42.6762 37.9439 42.6032ZM36.879 57.3244L45.9353 68.6508L52.0625 60.9873C52.7291 61.5838 53.0495 61.6684 54.4628 62.3951L53.9861 60.7783C53.8652 60.3677 54.3439 59.7094 54.6332 59.4068C55.2788 59.0566 55.8169 58.5572 56.2195 57.9405L61.2187 60.4508L56.5667 71.1011V74.1834H35.3032V71.1007L30.649 60.4519L36.879 57.3244ZM29.4807 61.3972L33.8548 71.4061V74.1834H27.2424C27.2092 71.9743 27.2912 65.0346 29.4807 61.3972Z" fill="#FF6B09"/>
</g>
<path d="M100.777 15V1H1V103H100.777V89" stroke="#FF6B09" stroke-width="2"/>
<defs>
<clipPath id="clip0_1_38">
<rect width="39.7409" height="48" fill="white" transform="translate(25.9442 28)"/>
</clipPath>
</defs>
</svg>
