<svg aria-hidden="true" style="position:absolute;width:0;height:0;overflow:hidden" xmlns="http://www.w3.org/2000/svg">
    <defs>
        <symbol id="icon-phone" viewBox="0 0 32 32">
            <path fill="#ff6b09" style="fill:var(--color1, #ff6b09)" d="M4.657.003a1.969 1.969 0 0 0-1.392.678L.67 3.65c.004-.009-.01-.008-.084.101a.656.656 0 0 0-.09.184C-.56 7.437.148 11.289 1.872 14.953S6.347 22.123 9.505 25s6.721 5.128 10.119 6.244c3.397 1.116 6.692 1.102 9.133-.742a.678.678 0 0 0 .075-.068c.064-.067.066-.075.056-.065l.01-.013L31.48 27.4c.742-.849.682-2.184-.134-2.956l-6.126-5.8a1.965 1.965 0 0 0-2.84.138l-2.772 3.173c-2.25-.678-4.173-1.828-6.023-3.58s-3.132-3.637-3.993-5.905l2.771-3.173c.742-.849.683-2.184-.133-2.956L6.104.542A1.963 1.963 0 0 0 4.655.003zm.058 1.301c.19-.009.383.06.541.209l6.126 5.799a.788.788 0 0 1 .05 1.104L8.369 11.92a.675.675 0 0 0-.124.666c.93 2.641 2.429 4.807 4.493 6.761s4.275 3.304 6.889 4.018a.61.61 0 0 0 .626-.193l3.064-3.505a.716.716 0 0 1 1.06-.051l6.127 5.8a.786.786 0 0 1 .049 1.103l-2.561 2.93c-2.003 1.497-4.826 1.581-7.986.542-3.173-1.043-6.617-3.202-9.666-5.98s-5.702-6.169-7.332-9.634C1.394 10.948.809 7.482 1.696 4.427l2.502-2.862a.736.736 0 0 1 .52-.261z"/>
        </symbol>
        <symbol id="icon-facebook" viewBox="0 0 32 32">
            <path fill="#436eab" style="fill:var(--color2, #436eab)" d="M28.166.297H3.834c-.88 0-1.724.347-2.346.964S.516 2.715.516 3.587v24.124c0 .872.35 1.709.972 2.326S2.954 31 3.834 31h9.487V20.562H8.966v-4.913h4.355v-3.745c0-4.259 2.558-6.612 6.475-6.612 1.876 0 3.838.332 3.838.332v4.181h-2.161c-2.13 0-2.794 1.31-2.794 2.654v3.19h4.754l-.76 4.913h-3.994V31h9.487c.88 0 1.724-.347 2.346-.963s.972-1.454.972-2.326V3.587c0-.872-.35-1.709-.972-2.326S29.046.297 28.166.297z"/>
        </symbol>
        <symbol id="icon-fire" viewBox="0 0 32 32">
            <path fill="#ff6b09" style="fill:var(--color1, #ff6b09)" d="M26.407 16.593c-.29-.635-.69-1.261-1.275-1.983-1.475-1.813-1.925-5.857-1.93-5.896a.49.49 0 0 0-.345-.412.514.514 0 0 0-.53.141c-1.76 1.925-1.02 4.897-.62 6.085.11.325.23.708.315 1.096.65 3.137-.605 4.557-.9 4.844-.285.078-.48.039-.66-.15-.62-.664-.825-2.841-.535-5.678a5.679 5.679 0 0 0-.04-1.581c-.612-3.486-2.854-5.722-3.425-6.507-1.57-2.269-1.73-6.046-1.735-6.08a.475.475 0 0 0-.275-.417.508.508 0 0 0-.505.034c-2.62 1.741-2.395 5.935-2.03 8.276.085.543.25 1.096.535 1.794 1.015 2.497-.2 5.721-.21 5.75s-.02.053-.025.082c-.155.795-.415 1.27-.705 1.27a.34.34 0 0 1-.095-.015c-.355-.073-.54-.441-.545-.761-.02-4.136-4.265-5.527-4.31-5.542a.506.506 0 0 0-.53.145.468.468 0 0 0-.07.533c.05.102.21.548.1 2.124a17.747 17.747 0 0 1-.785 4.16c-1.01 3.22-.85 6.269-.84 6.415.777 8.257 12.922 9.704 20.13 5.052.79-.509 1.435-1.091 1.91-1.731 2.66-3.588 1.095-8.461-.07-11.05zM7.932 24.481a.488.488 0 0 1-.47.509h-.03a.493.493 0 0 1-.5-.456 17.1 17.1 0 0 1 .02-2.255.501.501 0 0 1 .535-.451.492.492 0 0 1 .465.519 15.307 15.307 0 0 0-.02 2.133zm.245-4.295a.493.493 0 0 1-.495.427c-.02 0-.04 0-.065-.005a.492.492 0 0 1-.435-.538l.24-1.872a.503.503 0 0 1 .56-.422c.275.034.47.276.435.543l-.24 1.867zM23.025 6.633a.487.487 0 0 1-.418-.553c.031-.197.212-1.205.702-1.713.189-.196.505-.206.707-.022s.212.49.023.685c-.207.215-.384.829-.443 1.197a.499.499 0 0 1-.571.405zM4.796 9.048c-.096-.361-.333-.955-.562-1.149-.208-.177-.229-.483-.046-.684s.497-.222.706-.045c.539.458.82 1.445.871 1.638a.485.485 0 0 1-.36.59.502.502 0 0 1-.609-.349z"/>
        </symbol>
        <symbol id="icon-check" viewBox="0 0 32 32">
            <path fill="#ff6b09" style="fill:var(--color1, #ff6b09)" d="M28.237 4.733a24.364 24.364 0 0 0-3.495 1.851c-2.238 1.398-4.284 3.062-6.203 4.836-1.918 1.779-3.704 3.683-5.393 5.662-.422.495-2.313 2.699-2.313 2.699L2.969 8.597 0 16.407l10.635 12.037c1.033-1.984 2.027-3.943 3.001-5.645.242-.433.496-.84.738-1.254 0 0 1.248-2.082 1.576-2.607a62.86 62.86 0 0 1 4.293-6.083c1.564-1.938 3.264-3.788 5.191-5.414a23.237 23.237 0 0 1 3.073-2.234c1.092-.66 2.251-1.238 3.492-1.653-1.291.241-2.549.659-3.763 1.177z"/>
        </symbol>
        <symbol id="icon-howwedo-6" viewBox="0 0 32 32">
            <path  d="M2 27.928h10.701a3.265 3.265 0 0 0 2.958 1.876h.676a3.264 3.264 0 0 0 2.958-1.876H30c1.103 0 2-.909 2-2.027V6.479c0-1.118-.897-2.027-2-2.027h-1.08v-.905c0-.745-.598-1.351-1.333-1.351H4.407c-.735 0-1.333.606-1.333 1.351v.905H2c-1.103 0-2 .909-2 2.027v19.422c0 1.118.897 2.027 2 2.027zm25.585-4.168H16.666V8.061c2.524.334 4.48 2.523 4.48 5.17v.609l-.158-.035a.668.668 0 0 0-.794.514l-1.061 4.894a.675.675 0 0 0 .508.804l2.294.512a1.706 1.706 0 0 0 2.028-1.322l.614-2.83a1.733 1.733 0 0 0-1.299-2.061l-.798-.178v-.907c0-3.394-2.553-6.194-5.814-6.535V3.547h10.92l-.001 20.213zm-6.231-8.49 1.637.366a.376.376 0 0 1 .285.451l-.614 2.83a.396.396 0 0 1-.444.294l-1.639-.366.775-3.573zM4.407 3.547h10.926v3.148c-3.264.338-5.82 3.14-5.82 6.536v.907l-.8.179c-.445.1-.826.369-1.07.757a1.732 1.732 0 0 0-.227 1.302l.613 2.827A1.72 1.72 0 0 0 9.7 20.569c.12 0 .241-.013.364-.04l2.284-.511a.675.675 0 0 0 .507-.804l-1.061-4.894a.666.666 0 0 0-.795-.514l-.152.034v-.608c0-2.649 1.96-4.839 4.487-5.171v15.7H4.408V3.548zm6.228 11.724.776 3.573-1.63.365a.378.378 0 0 1-.448-.291l-.614-2.834a.374.374 0 0 1 .282-.449l1.633-.365zM1.333 6.479c0-.372.299-.676.667-.676h1.074v17.956c0 .745.598 1.351 1.333 1.351h23.18c.735 0 1.333-.606 1.333-1.351V5.803H30c.368 0 .667.303.667.676v19.422a.673.673 0 0 1-.667.676H18.84a.668.668 0 0 0-.637.477 1.946 1.946 0 0 1-1.868 1.399h-.676c-.861 0-1.611-.56-1.87-1.407a.667.667 0 0 0-.635-.469H2a.672.672 0 0 1-.667-.676V6.479z"/>
        </symbol>
        <symbol id="icon-howwedo-5" viewBox="0 0 32 32">
            <path  d="M1.801 32h28.427c.141-3.15-.091-8.376-2.085-10.863l-.072-.089-4.355-2.125a4.05 4.05 0 0 0 .16-.802 1.43 1.43 0 0 0-.106-.699c-.719-1.671-2.239-2.55-3.075-2.924a5.056 5.056 0 0 0 .498-1.582c.473-.13.854-.494.979-.98l.508-2.007a1.323 1.323 0 0 0-.472-1.378c1.433-3.163-.967-6.146-1.098-6.303-2.6-2.731-5.884-2.221-6.058-2.19-4.74.964-6.569 4.494-5.536 8.633a1.332 1.332 0 0 0-.321 1.238l.511 2.009c.124.483.502.846.972.977a5.102 5.102 0 0 0 1.223 2.639v1.591c-6.802 3.384-2.492 1.225-7.943 3.904-.011.05-2.558 2.68-2.179 10.475l.023.476zm27.439-1h-4.679v-1.91l3.094-6.883c1.55 2.5 1.608 7.273 1.584 8.792zm-6.386-12.965c-.181 2.015-1.318 1.406-2.02 2.958-.552-.59-.718-1.297-.57-2.055.268-1.391-.605-1.804-.39-3.265l.033-.033v-.005c.019-.02.191-.219.241-.282 1.851.784 2.742 2.242 2.706 2.681zm-9.93-1.583a5.377 5.377 0 0 0 3.012.921 5.365 5.365 0 0 0 2.904-.844c.119 1.149.581 1.379.417 2.224a3.582 3.582 0 0 0-.057.464l-3.186 3.489-4.073-4.462.983-.499v-1.293zm-1.281-4.27V6.849c.496-.891 1.172-1.537 2.012-1.925 2.25 1.237 4.84 3.083 6.577 4.941-.002 2.366.007 2.372-.009 2.567l-.001.012c-.136 2.148-1.954 3.929-4.285 3.929-2.267 0-4.149-1.729-4.285-3.951a2.746 2.746 0 0 1-.008-.241zm-.634 6.544 5.005 5.482 3.36-3.68c.077.215.185.418.308.614l-3.668 4.457-5.47-6.647.465-.227zm10.248-7.349V9.832l.382-.426c.021.782.108-.141-.382 1.97zM15.241 1.039c.203.012 2.935-.404 5.093 1.861.085.104 1.842 2.303 1.136 4.71-.242-1.071-.663-2.443-1.328-3.098l-.728.704c.657.647 1.089 2.616 1.253 3.637-3.015-3.065-6.903-5.005-6.957-5.037-.195.118-1.841.422-3.036 2.679l-.057.108v1.658l-.151.002c-.759-3.562.695-6.392 4.773-7.222zM10.36 9.29l.259 1.018v1.07l-.43-1.69c-.063-.252.129-.347.171-.398zm-.753 10.12 6.408 7.786 4.335-5.268c.472.41.698.468 1.698.968l-.337-1.111c-.086-.282.253-.735.458-.943a3.067 3.067 0 0 0 1.122-1.008l3.537 1.726-3.291 7.322v2.119H8.492v-2.119l-3.293-7.32 4.408-2.15zm-5.235 2.8 3.095 6.881V31H2.788c-.023-1.519.035-6.289 1.584-8.79z"/>
        </symbol>
        <symbol id="icon-howwedo-4" viewBox="0 0 32 32">
            <path  d="M1.979 12.558v2.831c0 .152.069.295.188.39a10.97 10.97 0 0 0 6.788 2.362c.735 0 1.471-.077 2.19-.224A11.85 11.85 0 0 0 16 18.949c1.695 0 3.327-.349 4.855-1.032 3.069.624 6.338-.046 8.977-2.138a.497.497 0 0 0 .188-.39v-2.831c0-.416-.205-.794-.571-1.027L25.61 9.355c.84-1.073 1.466-2.602 1.574-3.913.319-2.256-1.507-4.646-4.136-4.646a4.162 4.162 0 0 0-2.927 1.227c-.027.027-.057.049-.083.076-.024.025-.043.054-.066.08l-.044.053C19.177.852 17.733 0 16.032 0c-.165 0-.328.011-.488.028-.01-.001-.018-.006-.028-.006-.091 0-.285.024-.388.054-.015.004-.026.015-.041.021a4.453 4.453 0 0 0-2.991 2.156A4.134 4.134 0 0 0 8.94.796c-3.88 0-5.601 4.612-2.539 8.581l-3.875 2.167a1.193 1.193 0 0 0-.549 1.014zm18.867 4.27c-.083.041-.166.085-.25.123l-.002.001A10.862 10.862 0 0 1 16 17.958c-1.602 0-3.148-.338-4.596-1.007a10.876 10.876 0 0 1-2.03-1.221v-2.87c0-.098.047-.184.101-.221l4.509-2.524c.561.48 1.278.832 2.02.832.715 0 1.488-.357 2.038-.843l4.455 2.52a.277.277 0 0 1 .129.237v2.87c-.567.429-1.164.795-1.781 1.098zm8.099-4.446a.203.203 0 0 1 .091.176v2.587a9.864 9.864 0 0 1-6.688 1.98c.367-.23.766-.516 1.075-.76a.497.497 0 0 0 .188-.39v-3.114c0-.435-.217-.835-.606-1.087l-2.366-1.339.575-.321c.698.573 1.297.744 1.835.744.658 0 1.35-.325 1.864-.759l4.031 2.284zM23.05 1.788c1.371 0 2.574.902 3 2.142a3.665 3.665 0 0 1-2.221-1.142.489.489 0 0 0-.783.084 3.657 3.657 0 0 1-2.529 1.76v-.003a4.95 4.95 0 0 0-.032-.653l-.007-.067a5.536 5.536 0 0 0-.121-.609c.559-.902 1.598-1.513 2.694-1.513zm-2.641 3.856a4.603 4.603 0 0 0 3.142-1.762 4.634 4.634 0 0 0 2.682 1.056c-.007 1.792-1.461 4.927-3.183 4.927-1.328 0-2.461-1.912-2.885-3.238.108-.341.186-.669.244-.983zm.1 3.729-.88.491-.888-.502c.329-.413.631-.893.89-1.413.249.526.546 1.01.878 1.425zm-1.327-2.908c-.475 1.427-1.693 3.49-3.176 3.49-1.73 0-3.203-2.864-3.483-4.696.075-.019 2.412.126 4.02-2.001.816.688 1.918 1.143 2.989 1.188.013.647-.143 1.406-.35 2.018zM16.034.992c2.76 0 3.285 2.392 3.328 2.442a4.085 4.085 0 0 1-2.545-1.276.491.491 0 0 0-.784.087 4.048 4.048 0 0 1-3.555 2.022c.135-1.822 1.585-3.274 3.555-3.274zm-3.662 6.946a7.91 7.91 0 0 0 .906 1.438l-.869.487-.9-.51c.341-.438.631-.929.863-1.415zm-3.43-6.15c1.117 0 2.14.571 2.71 1.514-.029.1-.106.498-.116.548a3.646 3.646 0 0 1-1.808-1.062.49.49 0 0 0-.783.086 3.68 3.68 0 0 1-3.154 1.815c.157-1.627 1.507-2.9 3.151-2.9zm-3.108 3.89A4.663 4.663 0 0 0 9.45 3.882a4.578 4.578 0 0 0 2.041.961c.029.575.178 1.273.348 1.789-.272.84-.793 1.841-1.44 2.505l-.014.01c-.405.43-.981.719-1.434.719-1.583 0-2.82-2.508-3.117-4.188zm-2.87 6.88c0-.075.033-.139.067-.162l4.086-2.284c.245.206.302.229.351.265.481.322.922.482 1.523.482.64 0 1.223-.273 1.737-.694.029-.023.06-.045.087-.068l.583.33-2.429 1.361c-.363.236-.58.636-.58 1.071v3.114c0 .152.069.296.188.39.314.249.722.539 1.075.761a9.903 9.903 0 0 1-6.689-1.98v-2.587z"/>
            <path  d="M31.034 20.781a2.036 2.036 0 0 0-1.993-.11l-6.076 2.956a2.102 2.102 0 0 0-2.092-2.071l-3.484.001c-1.718-1.504-3.913-2.425-5.909-2.473-1.968-.047-3.735-.06-4.56-.064v-1.002H-.002v11.517H6.92v-1.379c1.898 1.097 6.889 3.845 9.258 3.845.054 0 .106-.001.157-.004 4.165-.235 13.989-7.198 14.637-7.661a2.08 2.08 0 0 0 1.026-1.796c0-.719-.361-1.376-.966-1.758zM5.937 28.542H.985v-9.533h4.952v9.533zm24.53-5.058a.296.296 0 0 0-.044.028c-.101.073-10.207 7.271-14.142 7.494a2.315 2.315 0 0 1-.12.003c-2.077 0-7.143-2.753-9.24-4.001v-6.997c.821.004 2.578.017 4.536.064 1.824.044 3.848.921 5.416 2.346l.14.128 3.86-.001c.612 0 1.111.502 1.111 1.119s-.498 1.119-1.111 1.119h-7.091v.992h7.091c.68 0 1.278-.333 1.662-.839l6.934-3.373c.34-.167.72-.146 1.041.057s.504.537.504.918c0 .391-.21.753-.549.945zM16.492 12.159h-.985v.92h.985v-.92zM16.492 13.992h-.985v.92h.985v-.92zM16.492 15.826h-.985v.92h.985v-.92z"/>
        </symbol>
        <symbol id="icon-howwedo-3" viewBox="0 0 32 32">
            <path  d="M14.119 7.515H4.024v.76h10.095v-.76zM14.118 10.351H5.534v.76h8.584v-.76zM14.119 13.187H4.024v.76h10.095v-.76zM14.118 16.024H5.534v.76h8.584v-.76zM14.119 18.86H4.024v.76h10.095v-.76zM14.118 21.696H5.534v.76h8.584v-.76zM27.977 7.515H17.882v.76h10.095v-.76zM26.465 10.351h-8.584v.76h8.584v-.76zM27.977 13.187H17.882v.76h10.095v-.76zM26.465 16.024h-8.584v.76h8.584v-.76zM27.977 18.86H17.882v.76h10.095v-.76zM26.465 21.696h-8.584v.76h8.584v-.76z"/>
            <path  d="M31.622 6.649h-1.386V4.554c0-.21-.169-.38-.378-.38H18.56A2.92 2.92 0 0 0 16 5.672a2.922 2.922 0 0 0-2.56-1.498H2.142a.379.379 0 0 0-.378.38v2.095H.378a.379.379 0 0 0-.378.38v20.417c0 .21.169.38.378.38h31.244c.209 0 .378-.17.378-.38V7.029c0-.21-.169-.38-.378-.38zM18.56 4.935h10.92v20.371H17.753c-.52 0-1.04.221-1.376.507V7.126c0-1.214.966-2.191 2.182-2.191zm-16.04 0h10.92a2.17 2.17 0 0 1 2.177 2.107c.001.016.002.068.005.084v18.685a2.202 2.202 0 0 0-1.371-.505H2.519V4.935zM.756 7.41h1.008v18.277c0 .21.169.38.378.38h12.109c.576 0 1.133.38 1.311.999H.756V7.41zm30.488 19.655H16.438a1.367 1.367 0 0 1 1.316-.999h12.105c.209 0 .378-.17.378-.38V7.409h1.008v19.656z"/>
        </symbol>
        <symbol id="icon-howwedo-2" viewBox="0 0 32 32">
            <path  d="M29.808 0H14.099a1.851 1.851 0 0 0-1.855 1.844V8.31L.573 13.181a.377.377 0 0 0-.048.672l1.488.886v9.439a1.708 1.708 0 0 0-1.332 1.66v.91c0 .209.17.378.38.378h2.665c.21 0 .38-.169.38-.378v-.91c0-.809-.571-1.486-1.333-1.659v-8.988l1.177.7c-.036.27-.005-.47-.017 4.395 0 1.599 4.119 2.456 8.311 2.505v7.366c0 .381.117.734.317 1.028.333.49.898.813 1.536.813h15.709a1.85 1.85 0 0 0 1.853-1.842c0 .05-.002-1.56 0-28.313a1.861 1.861 0 0 0-1.852-1.844zM3.346 25.839v.532H1.441v-.532a.953.953 0 0 1 1.905 0zm26.462 5.403H14.099c-.377 0-.71-.19-.907-.478a1.074 1.074 0 0 1-.187-.607v-2.554h17.893v2.555c0 .592-.496 1.084-1.09 1.084zm1.09-4.394H13.005v-4.054c2.046-.023 8.316-.471 8.316-2.507-.002-3.056.005-4.295-.01-4.4l3.413-2.033a.378.378 0 0 0-.048-.672l-11.67-4.871V5.154h17.893v21.695zm-18.274-9.07c-2.108 0-6.167.271-7.931 1.416.011-3.502-.122-3.274.312-3.571 1.095-.802 4.228-1.362 7.619-1.362 1.479 0 7.936.404 7.936 1.764v3.17c-1.78-1.156-5.818-1.416-7.936-1.416zm.381-15.934c0-.599.49-1.087 1.093-1.087h15.709c.603 0 1.091.494 1.091 1.086v2.554H13.005V1.844zm-.381 7.127 11.064 4.618-2.741 1.631c-1.458-1.437-6.279-1.716-8.323-1.716-2.046 0-6.868.28-8.322 1.716L1.56 13.588 12.625 8.97zm-7.93 11.316c0-.612 2.724-1.753 7.931-1.753 5.21 0 7.936 1.142 7.936 1.753s-2.726 1.754-7.936 1.754c-5.207 0-7.931-1.142-7.931-1.754z"/>
            <path  d="M21.952 28.174c-.693 0-1.257.56-1.257 1.25s.564 1.25 1.257 1.25 1.257-.561 1.257-1.25-.564-1.25-1.257-1.25zm0 1.744c-.274 0-.497-.222-.497-.495s.223-.494.497-.494.497.221.497.494-.223.495-.497.495zM23.402 2.2h-2.899v.756h2.899V2.2z"/>
        </symbol>
        <symbol id="icon-howwedo-1" viewBox="0 0 32 32">
            <path  d="m30.977 4.975-.001-.002a.32.32 0 0 0-.06-.09L26.068.084a.329.329 0 0 0-.041-.033l-.009-.006c-.012-.007-.024-.014-.036-.019l-.011-.005a.287.287 0 0 0-.1-.02H4.509a.285.285 0 0 0-.286.284v29.271c0 .019.002.037.006.056l.007.023.009.03.014.026.013.023c.01.014.021.028.033.04l.003.003 2.183 2.161a.288.288 0 0 0 .405 0l1.982-1.961 1.981 1.961c.056.056.129.083.203.083s.146-.027.202-.083l1.981-1.96 1.982 1.96a.288.288 0 0 0 .405 0l1.981-1.96 1.981 1.96a.288.288 0 0 0 .405 0l1.982-1.961 1.981 1.961c.056.056.129.083.202.083s.147-.027.203-.083l1.981-1.96 1.982 1.96a.288.288 0 0 0 .405 0l2.183-2.161.011-.014.024-.029c.007-.009.011-.02.017-.03.003-.007.007-.012.009-.019.006-.013.009-.026.012-.039l.005-.013a.278.278 0 0 0 .006-.058V5.085a.287.287 0 0 0-.023-.108zM26.151.969l3.869 3.83h-3.869V.969zm4.275 28.468-1.896 1.878-1.982-1.961a.29.29 0 0 0-.405 0l-1.981 1.961-1.981-1.961a.29.29 0 0 0-.405 0l-1.982 1.961-1.98-1.96v-.001a.289.289 0 0 0-.405 0l-1.98 1.961-1.982-1.961a.29.29 0 0 0-.405 0l-1.981 1.961-1.981-1.961a.29.29 0 0 0-.405 0l-1.982 1.961-1.897-1.878V.567h20.783v4.516c0 .157.128.284.287.284h4.561v24.071z"/>
            <path  d="M6.931 3.251h9.384c.158 0 .287-.127.287-.284s-.128-.284-.287-.284H6.931c-.159 0-.287.127-.287.284s.128.284.287.284zM6.931 5.005H21.98c.158 0 .287-.127.287-.284s-.128-.284-.287-.284H6.931c-.159 0-.287.127-.287.284s.128.284.287.284zM6.645 6.58v9.186c0 .157.128.284.287.284h21.357a.285.285 0 0 0 .286-.284V6.58a.285.285 0 0 0-.286-.284H6.932a.285.285 0 0 0-.287.284zm6.333.284h15.024v2.442H12.978V6.864zm0 3.009h15.024v2.441H12.978V9.873zm0 3.008h15.024v2.602H12.978v-2.602zm-5.76-6.017h5.187v2.442H7.218V6.864zm0 3.009h5.187v2.441H7.218V9.873zm0 3.008h5.187v2.602H7.218v-2.602zM28.289 17.327H6.932a.285.285 0 0 0-.287.284v9.186c0 .157.128.283.287.283s.286-.127.286-.283v-2.885h5.187v2.885c0 .157.128.283.286.283s.287-.127.287-.283v-2.885h15.024v2.885c0 .157.128.283.287.283s.286-.127.286-.283v-9.186a.284.284 0 0 0-.286-.284zm-15.884 6.017H7.218v-2.44h5.187v2.44zm0-3.008H7.218v-2.441h5.187v2.441zm15.597 3.008H12.978v-2.44h15.024v2.44zm0-3.008H12.978v-2.441h15.024v2.441zM2.863 0a.286.286 0 0 0-.287.284v29.271c0 .156.128.283.287.283s.287-.127.287-.283V.284A.285.285 0 0 0 2.863 0zM1.287 0A.286.286 0 0 0 1 .284v29.271c0 .156.128.283.287.283s.286-.127.286-.283V.284A.285.285 0 0 0 1.287 0z"/>
        </symbol>
        <svg aria-hidden="true" style="position:absolute;width:0;height:0;overflow:hidden" xmlns="http://www.w3.org/2000/svg"><defs><symbol id="icon-close-menu" viewBox="0 0 32 32"><path fill="none" stroke="#fff" style="stroke:var(--color1, #fff)" stroke-linecap="round" stroke-width="3.765" d="M1.882 29.168 29.168 1.882M29.169 29.168 1.883 1.882"/></symbol></defs></svg>
        <symbol id="icon-open-menu" viewBox="0 0 48 32">
            <path d="M0 5.333V0h48v5.333H0zm0 13.334h48v-5.333H0v5.333zM0 32h48v-5.333H0V32z"/>
        </symbol>
        <symbol id="icon-close_40px" viewBox="0 0 32 32">
            <path d="M23.733 10.304 22.229 8.8l-5.963 5.963L10.303 8.8l-1.504 1.504 5.963 5.963-5.963 5.963 1.504 1.504 5.963-5.963 5.963 5.963 1.504-1.504-5.963-5.963 5.963-5.963z"/>
        </symbol>
        <symbol id="icon-advantages-3" viewBox="0 0 32 32">
            <path  d="M7.575 14.543c0 .23-.35.23-.35 0a8.867 8.867 0 0 1 8.866-8.866 8.865 8.865 0 0 1 8.866 8.866c0 .23-.347.23-.347 0 0-3.309-5.438-3.311-5.438 0 0 .23-.358.23-.358 0 0-3.301-5.446-3.301-5.446 0 0 .23-.358.23-.358 0 0-3.294-5.435-3.317-5.435 0zm5.467-1.285c.094-1.905.393-3.612.829-4.916.347-1.036.787-1.823 1.285-2.265a8.523 8.523 0 0 0-7.441 6.917c1.287-1.856 4.259-1.708 5.327.264zm5.745-.086c-.096-1.831-.387-3.47-.806-4.72-1.08-3.234-2.7-3.234-3.78 0-.419 1.25-.707 2.888-.806 4.72 1.162-1.974 4.23-1.974 5.391 0zm5.681-.178a8.518 8.518 0 0 0-7.441-6.917c.5.442.938 1.229 1.285 2.265.435 1.304.735 3.012.829 4.916 1.074-1.982 4.054-2.099 5.327-.264zM14.928 18.6v-1.8c-.324.216-.58.549-.58.955 0 .396.259.657.58.846zm.35.559c-.622-.285-1.277-.618-1.277-1.405 0-.812.617-1.218 1.277-1.522v2.927zM17.255 21.316v1.821c.329-.218.586-.553.586-.959 0-.4-.264-.67-.586-.862zm-.347-.561c.624.289 1.283.632 1.283 1.423 0 .814-.622 1.22-1.283 1.522v-2.945z"/>
            <path  d="M17.255 14.751c1.432.331 2.903 1.402 2.903 3.004 0 1.371-2.317 1.321-2.317 0 0-.408-.257-.743-.586-.959v2.562c1.325.433 2.907 1.21 2.907 2.821 0 1.603-1.471 2.673-2.907 3.001-.006 1.526-2.323 1.524-2.327-.002-.816-.188-1.526-.569-2.039-1.074-.538-.532-.856-1.199-.856-1.926 0-1.35 2.315-1.35 2.315 0 0 .404.255.737.58.952v-2.56c-1.314-.425-2.905-1.224-2.905-2.821 0-1.603 1.471-2.673 2.905-3.001.006-1.526 2.323-1.524 2.327.002zm-1.978.004v.278c-1.363.27-2.907 1.143-2.907 2.717 0 1.513 1.695 2.191 2.907 2.566v3.382c-.655-.299-1.277-.703-1.277-1.52 0-.892-1.62-.892-1.62 0 0 .63.28 1.212.753 1.677.601.594 1.329.877 2.143 1.038v.28c0 1.074 1.63 1.074 1.63 0v-.278c1.367-.272 2.905-1.145 2.905-2.717 0-1.528-1.691-2.185-2.905-2.568v-3.38c.657.299 1.283.703 1.283 1.524 0 .869 1.618.904 1.618 0 0-1.572-1.536-2.447-2.901-2.719v-.28c0-1.074-1.63-1.074-1.63 0z"/>
            <path  stroke-width="1.032" d="M31.484 4.767V.517H.516v30.968h30.968v-4.25"/>
        </symbol>
        <symbol id="icon-advantages-2" viewBox="0 0 32 32">
            <path fill="#ff6b09" style="fill:var(--color1, #ff6b09)" d="M25.116 5.077H14.703a1.23 1.23 0 0 0-1.229 1.229v4.31l-7.736 3.247a.251.251 0 0 0-.032.448l.987.59v6.292A1.137 1.137 0 0 0 5.81 22.3v.607c0 .139.113.252.252.252h1.767a.252.252 0 0 0 .252-.252V22.3c0-.54-.379-.99-.883-1.106v-5.991l.78.467c-.024.18-.003-.313-.011 2.929 0 1.066 2.73 1.637 5.509 1.67v4.91a1.228 1.228 0 0 0 1.228 1.227h10.413a1.23 1.23 0 0 0 1.228-1.228V6.305c0-.669-.553-1.229-1.227-1.229zM7.576 22.301v.355H6.313v-.355a.632.632 0 1 1 1.263 0zm17.54 3.601H14.703a.725.725 0 0 1-.725-.723v-1.702h11.86v1.703a.728.728 0 0 1-.722.722zm.722-2.929h-11.86v-2.702c1.356-.016 5.512-.314 5.512-1.671-.002-2.037.004-2.863-.006-2.933l2.262-1.355a.252.252 0 0 0-.032-.448l-7.736-3.247V8.513h11.86v14.461zm-12.112-6.046c-1.397 0-4.088.18-5.257.944.007-2.335-.081-2.183.206-2.38.726-.535 2.803-.908 5.05-.908.98 0 5.26.269 5.26 1.176v2.113c-1.18-.77-3.857-.944-5.26-.944zm.252-10.621c0-.399.325-.724.724-.724h10.413c.4 0 .723.329.723.724v1.702h-11.86V6.306zm-.252 4.751 7.334 3.078-1.817 1.087c-.966-.958-4.162-1.144-5.517-1.144-1.356 0-4.552.186-5.517 1.144l-1.818-1.088 7.334-3.078zM8.469 18.6c0-.408 1.805-1.169 5.257-1.169 3.453 0 5.26.761 5.26 1.169s-1.807 1.169-5.26 1.169c-3.451 0-5.257-.761-5.257-1.169z"/>
            <path fill="#ff6b09" style="fill:var(--color1, #ff6b09)" d="M19.909 23.857a.834.834 0 0 0 0 1.667.834.834 0 0 0 0-1.667zm0 1.163a.33.33 0 1 1 0-.659.33.33 0 0 1 0 .659zM20.87 6.543h-1.922v.504h1.922v-.504z"/>
            <path fill="none" stroke="#ff6b09" style="stroke:var(--color1, #ff6b09)" stroke-width="1.032" d="M31.484 4.767V.517H.516v30.968h30.968v-4.25"/>
        </symbol>
        <symbol id="icon-advantages-1" viewBox="0 0 32 32">
            <path fill="#ff6b09" style="fill:var(--color1, #ff6b09)" d="M7.16 26.167h17.28c.086-1.971-.056-5.24-1.267-6.796l-.044-.056-2.648-1.329a2.54 2.54 0 0 0 .097-.502.932.932 0 0 0-.064-.437c-.437-1.045-1.361-1.595-1.869-1.83.155-.312.255-.647.303-.99a.849.849 0 0 0 .595-.613l.309-1.255a.853.853 0 0 0-.097-.647.856.856 0 0 0-.19-.216c.871-1.979-.588-3.845-.668-3.944-1.581-1.709-3.577-1.389-3.683-1.37-2.881.603-3.993 2.812-3.366 5.402a.85.85 0 0 0-.195.774l.311 1.257a.848.848 0 0 0 .591.611c.088.627.354 1.194.743 1.651v.995c-4.135 2.117-1.515.767-4.828 2.443-.007.031-1.555 1.677-1.325 6.554l.014.298zm16.68-.626h-2.844v-1.195l1.881-4.306c.942 1.564.977 4.55.963 5.501zm-3.882-8.111c-.11 1.261-.801.88-1.228 1.851-.336-.369-.437-.812-.346-1.286.163-.87-.368-1.128-.237-2.043l.02-.021v-.003c.011-.013.116-.137.146-.177 1.125.491 1.667 1.403 1.645 1.678zm-6.036-.991a3.205 3.205 0 0 0 3.596.048c.072.719.353.863.253 1.391a2.269 2.269 0 0 0-.035.29l-1.937 2.183-2.476-2.791.598-.312v-.809zm-.779-2.672V10.43c.301-.558.712-.962 1.223-1.204 1.368.774 2.942 1.929 3.998 3.091-.001 1.48.004 1.484-.006 1.606l-.001.008a2.613 2.613 0 0 1-2.605 2.458 2.62 2.62 0 0 1-2.61-2.623zm-.385 4.095 3.043 3.43 2.043-2.302c.047.134.112.261.187.384l-2.23 2.788-3.325-4.159.282-.142zm6.229-4.598v-.966l.232-.266c.013.489.066-.088-.232 1.233zM15.33 6.796c.124.008 1.784-.253 3.096 1.164.052.065 1.12 1.441.691 2.947-.147-.67-.403-1.528-.807-1.938l-.442.441c.399.405.662 1.637.762 2.276-1.833-1.918-4.196-3.131-4.229-3.152-.119.074-1.119.264-1.845 1.676l-.035.068v1.037l-.092.001c-.462-2.229.422-3.999 2.902-4.519zm-2.967 5.162.157.637v.669l-.261-1.058c-.038-.158.078-.217.104-.249zm-.458 6.332 3.895 4.872 2.635-3.296c.287.257.425.293 1.032.606l-.205-.695c-.052-.177.154-.46.278-.59.278-.151.509-.365.682-.631l2.15 1.08-2.001 4.581v1.326h-9.146v-1.326l-2.002-4.58 2.68-1.345zm-3.182 1.752 1.881 4.305v1.195H7.76c-.014-.95.021-3.935.963-5.499z"/>
            <path fill="none" stroke="#ff6b09" style="stroke:var(--color1, #ff6b09)" stroke-width="1.032" d="M31.484 4.767V.517H.516v30.968h30.968v-4.25"/>
        </symbol>
        <symbol id="icon-arrow-prev" viewBox="0 0 46 27">
            <path fill="#ff6b09" style="fill:var(--color1, #ff6b09)" d="M43.875 11.813a1.688 1.688 0 0 1 0 3.376v-3.375zM.494 14.693a1.687 1.687 0 0 1 0-2.386L11.233 1.568a1.687 1.687 0 1 1 2.386 2.386L4.073 13.5l9.546 9.546a1.687 1.687 0 1 1-2.386 2.386L.494 14.693zm43.381.495H1.687v-3.375h42.188v3.375z"/>
        </symbol>
        <symbol id="icon-arrow-next" viewBox="0 0 46 27">
            <path fill="#ff6b09" style="fill:var(--color1, #ff6b09)" d="M1.688 11.813a1.688 1.688 0 0 0 0 3.376v-3.375zm43.38 2.88a1.687 1.687 0 0 0 0-2.386L34.329 1.568a1.687 1.687 0 1 0-2.386 2.386l9.546 9.546-9.546 9.546a1.687 1.687 0 1 0 2.386 2.386l10.739-10.739zm-43.38.495h42.188v-3.375H1.688v3.375z"/>
        </symbol>
    </defs>
</svg>